<svg xmlns="http://www.w3.org/2000/svg" viewBox="0 0 680 180"><g stroke="#2F855A" stroke-width="14"><path fill="none" d="M70 30c40 0 60 30 60 70s-20 70-60 70-60-30-60-70V30Z"/><path d="M60 60v80"><animate attributeName="opacity" calcMode="spline" dur="2.0s" keySplines="0.42 0 0.58 1; 0.42 0 0.58 1" keyTimes="0;0.5;1" repeatCount="indefinite" values="1;0;1"/></path></g><path fill="#2F855A" stroke="#2f855a" stroke-width="2.4000000000000004" d="M204.5 143.1q-9.5 0-15.9-3.6-6.3-3.6-9.7-10-3.4-6.5-3.8-14.8l-.1-5.4.1-5.3q.4-8.4 3.8-14.8 3.5-6.3 9.8-10 6.4-3.6 15.8-3.6t15.8 3.7q6.3 3.6 9.8 10 3.4 6.3 3.8 14.7l.1 5.3-.1 5.5q-.4 8.2-3.8 14.6-3.3 6.5-9.7 10.1-6.4 3.6-15.9 3.6m0-9.6q7.8 0 12.4-5 4.6-4.9 5-14.4l.1-4.7-.1-4.8q-.4-9.5-5-14.4-4.7-5-12.4-5-7.8 0-12.4 5-4.7 5-5 14.4l-.1 4.8.1 4.7q.3 9.5 5 14.5 4.7 4.9 12.4 4.9Zm48.1 32.1q-1.2 0-2-.8t-.8-2v-83q0-1.3.8-2.1t2-.8h5.8q1.2 0 2 .8.9.8.9 2v5.5q3-4 8-6.8t12.4-2.8q7 0 12 2.4t8.1 6.5q3.2 4.1 4.8 9.4 1.6 5.2 1.9 11.2l.1 4.3-.1 4.2q-.3 5.9-1.9 11.2-1.6 5.3-4.8 9.4-3.2 4-8.1 6.5-5 2.4-12 2.4-7.2 0-12.1-2.7-5-2.7-8.1-6.7v29q0 1.3-.8 2.1-.7.8-2 .8h-6M279 133q6.5 0 10.2-2.8 3.7-2.8 5.3-7.4 1.6-4.5 1.9-9.8v-7.3q-.3-5.2-1.9-9.8-1.6-4.5-5.3-7.3-3.7-2.8-10.2-2.8-6.1 0-9.9 2.8-3.8 2.9-5.6 7.4-1.9 4.4-2.1 9l-.1 4.8.1 4.8q.1 4.4 2 8.7 2 4.2 5.9 7 3.9 2.7 9.7 2.7Zm71 10.1q-13 0-20.6-7.9-7.6-8-8.4-21.7l-.1-4.2.1-4.2q.5-8.8 4.1-15.5 3.7-6.7 10-10.3 6.3-3.7 14.8-3.7 9.5 0 16 4 6.4 4 9.8 11.4 3.3 7.4 3.3 17.3v2q0 1.5-.8 2.2-.8.8-2 .8H333v1.1q.3 5.1 2.3 9.5 2 4.5 5.8 7.2 3.8 2.8 8.9 2.8 4.5 0 7.5-1.4t4.9-3q1.9-1.8 2.5-2.8 1.1-1.5 1.7-1.8.6-.3 2-.3h6.1q1.2 0 2 .7t.7 2q-.1 1.8-2 4.5t-5.3 5.3q-3.5 2.7-8.5 4.3-5.1 1.7-11.5 1.7M333 104.6h34.3v-.3q0-5.7-2.1-10-2-4.4-6-7-3.8-2.5-9.2-2.5-5.4 0-9.2 2.5-3.8 2.6-5.8 7-2 4.3-2 10v.3Zm64 37.3q-1.3 0-2-.8-.9-.8-.9-2.1V79.7q0-1.2.9-2 .8-.8 2-.8h5.9q1.2 0 2 .8.9.8.9 2v5.5q3.2-4.2 8.1-6.9 5-2.7 12.7-2.7 8.1 0 13.9 3.6 5.6 3.5 8.6 9.9 2.9 6.3 2.9 14.7V139q0 1.3-.8 2-.8.9-2 .9h-6.3q-1.3 0-2-.8-.9-.8-.9-2.1v-34.6q0-8.8-4.3-13.7-4.2-5-12.4-5-7.8 0-12.5 5t-4.7 13.7V139q0 1.3-.8 2-.8.9-2 .9H397Zm75.9 0q-1.3 0-2-.8-.9-.8-.9-2.1V56q0-1.3.8-2 .8-.9 2-.9h6q1.3 0 2 .8.8.9.8 2.1v83q0 1.3-.7 2-.8.9-2.1.9h-6Zm53.4 1.2q-13 0-20.7-7.9-7.6-8-8.4-21.7v-8.4q.6-8.8 4.2-15.5 3.6-6.7 10-10.3 6.2-3.7 14.7-3.7 9.5 0 16 4 6.4 4 9.8 11.4 3.4 7.4 3.4 17.3v2q0 1.5-.8 2.2-.9.8-2.1.8H509v1.1q.3 5.1 2.3 9.5 2 4.5 5.8 7.2 3.8 2.8 9 2.8 4.4 0 7.4-1.4t4.9-3q1.9-1.8 2.5-2.8 1.1-1.5 1.8-1.8.6-.3 2-.3h6q1.2 0 2 .7t.7 2q-.1 1.8-2 4.5t-5.3 5.3q-3.5 2.7-8.5 4.3-5 1.7-11.5 1.7m-17-38.5h34.2v-.3q0-5.7-2-10-2.1-4.4-6-7-3.9-2.5-9.3-2.5t-9.1 2.5q-3.9 2.6-5.9 7-2 4.3-2 10v.3Zm79.2 38.5q-6.3 0-11.4-2.5-5.1-2.5-8.3-6.7-3-4.3-3-9.7 0-8.6 7-13.7t18.2-6.8l18.6-2.6v-3.6q0-6-3.4-9.4-3.5-3.3-11.2-3.3-5.5 0-9 2.2-3.5 2.3-4.9 5.8-.8 1.8-2.6 1.8h-5.6q-1.4 0-2.1-.8-.7-.8-.7-2 0-1.8 1.5-4.5 1.4-2.8 4.4-5.4 3-2.7 7.7-4.5 4.6-1.8 11.4-1.8 7.5 0 12.6 2 5.1 1.9 8.1 5.2 3 3.2 4.3 7.3 1.3 4.2 1.3 8.4V139q0 1.3-.8 2-.9.9-2.1.9h-5.8q-1.4 0-2.1-.8-.8-.8-.8-2.1v-5.4q-1.6 2.3-4.3 4.5-2.8 2.2-6.9 3.6-4.1 1.4-10.1 1.4m2.6-9.3q5.1 0 9.4-2.2 4.2-2.2 6.7-6.8 2.4-4.7 2.4-11.7v-3.5l-14.5 2.2q-8.9 1.2-13.4 4.2-4.5 2.9-4.5 7.4 0 3.5 2.1 5.8 2 2.3 5.3 3.4 3.1 1.2 6.5 1.2Zm57.6 8q-1.2 0-2-.8-.9-.8-.9-2V86.9h-10.6q-1.2 0-2-.8-.9-.8-.9-2.1v-4.3q0-1.2.8-2 .9-.8 2.1-.8h10.6v-6.3q0-6.3 2.2-11.2 2.1-4.8 6.8-7.4 4.7-2.6 12.5-2.6h7.5q1.3 0 2.1.8t.8 2v4.3q0 1.3-.8 2-.8.9-2 .9h-7.3q-5.9 0-8 3-2.1 3.1-2.1 8.9v5.6h16.1q1.3 0 2 .8.9.8.9 2V84q0 1.3-.9 2-.8.9-2 .9h-16.1V139q0 1.3-.8 2-.9.9-2.1.9h-5.9Z"/></svg>