<svg viewBox="0 0 680 180" xmlns="http://www.w3.org/2000/svg">
  <g>
    <path d="M70 30 C110 30, 130 60, 130 100 C130 140, 110 170, 70 170 C30 170, 10 140, 10 100 L10 30 Z"
          fill="none"
          stroke="#2F855A"
          stroke-width="12"/>

    <!-- static text cursor -->
      <line x1="60" y1="60" x2="60" y2="140"
          stroke="#2F855A"
          stroke-width="12">
      <animate attributeName="opacity"
        values="1;0;1"
        dur="2.0s"
        keyTimes="0;0.5;1"
        keySplines="0.42 0 0.58 1; 0.42 0 0.58 1"
        calcMode="spline"
        repeatCount="indefinite"/>
    </line>
  </g>

  <g fill="#2F855A" transform="translate(175, 25) scale(2.5)">
    <path d="M11.80 47.25Q8 47.25 5.45 45.80Q2.90 44.35 1.55 41.77Q0.20 39.20 0.05 35.90Q0 35.05 0 33.73Q0 32.40 0.05 31.60Q0.20 28.25 1.57 25.70Q2.95 23.15 5.50 21.70Q8.05 20.25 11.80 20.25Q15.55 20.25 18.10 21.70Q20.65 23.15 22.03 25.70Q23.40 28.25 23.55 31.60Q23.60 32.40 23.60 33.73Q23.60 35.05 23.55 35.90Q23.40 39.20 22.05 41.77Q20.70 44.35 18.15 45.80Q15.60 47.25 11.80 47.25M11.80 43.40Q14.90 43.40 16.75 41.42Q18.60 39.45 18.75 35.65Q18.80 34.90 18.80 33.75Q18.80 32.60 18.75 31.85Q18.60 28.05 16.75 26.07Q14.90 24.10 11.80 24.10Q8.70 24.10 6.82 26.07Q4.95 28.05 4.85 31.85Q4.80 32.60 4.80 33.75Q4.80 34.90 4.85 35.65Q4.95 39.45 6.82 41.42Q8.70 43.40 11.80 43.40ZM31.05 56.25Q30.55 56.25 30.23 55.92Q29.90 55.60 29.90 55.10L29.90 21.90Q29.90 21.40 30.23 21.07Q30.55 20.75 31.05 20.75L33.35 20.75Q33.85 20.75 34.18 21.07Q34.50 21.40 34.50 21.90L34.50 24.10Q35.70 22.45 37.70 21.35Q39.70 20.25 42.70 20.25Q45.50 20.25 47.48 21.20Q49.45 22.15 50.73 23.80Q52 25.45 52.65 27.55Q53.30 29.65 53.40 32.05Q53.45 32.85 53.45 33.75Q53.45 34.65 53.40 35.45Q53.30 37.80 52.65 39.92Q52 42.05 50.73 43.67Q49.45 45.30 47.48 46.27Q45.50 47.25 42.70 47.25Q39.80 47.25 37.83 46.17Q35.85 45.10 34.60 43.50L34.60 55.10Q34.60 55.60 34.30 55.92Q34 56.25 33.50 56.25L31.05 56.25M41.65 43.20Q44.25 43.20 45.73 42.08Q47.20 40.95 47.85 39.13Q48.50 37.30 48.60 35.20Q48.65 33.75 48.60 32.30Q48.50 30.20 47.85 28.38Q47.20 26.55 45.73 25.42Q44.25 24.30 41.65 24.30Q39.20 24.30 37.68 25.45Q36.15 26.60 35.43 28.38Q34.70 30.15 34.60 32Q34.55 32.80 34.55 33.90Q34.55 35 34.60 35.85Q34.65 37.60 35.43 39.30Q36.20 41 37.75 42.10Q39.30 43.20 41.65 43.20ZM70.05 47.25Q64.85 47.25 61.80 44.08Q58.75 40.90 58.45 35.40Q58.40 34.75 58.40 33.73Q58.40 32.70 58.45 32.05Q58.65 28.50 60.10 25.82Q61.55 23.15 64.08 21.70Q66.60 20.25 70 20.25Q73.80 20.25 76.38 21.85Q78.95 23.45 80.30 26.40Q81.65 29.35 81.65 33.30L81.65 34.15Q81.65 34.70 81.33 35Q81 35.30 80.50 35.30L63.20 35.30Q63.20 35.35 63.20 35.50Q63.20 35.65 63.20 35.75Q63.30 37.80 64.10 39.58Q64.90 41.35 66.43 42.45Q67.95 43.55 70 43.55Q71.80 43.55 73 43Q74.20 42.45 74.95 41.77Q75.70 41.10 75.95 40.70Q76.40 40.10 76.65 39.98Q76.90 39.85 77.45 39.85L79.90 39.85Q80.35 39.85 80.68 40.13Q81 40.40 80.95 40.90Q80.90 41.65 80.15 42.73Q79.40 43.80 78.03 44.85Q76.65 45.90 74.63 46.58Q72.60 47.25 70.05 47.25M63.20 31.85L76.90 31.85L76.90 31.70Q76.90 29.45 76.08 27.70Q75.25 25.95 73.70 24.92Q72.15 23.90 70 23.90Q67.85 23.90 66.33 24.92Q64.80 25.95 64 27.70Q63.20 29.45 63.20 31.70L63.20 31.85ZM88.80 46.75Q88.30 46.75 87.98 46.42Q87.65 46.10 87.65 45.60L87.65 21.90Q87.65 21.40 87.98 21.07Q88.30 20.75 88.80 20.75L91.15 20.75Q91.65 20.75 91.98 21.07Q92.30 21.40 92.30 21.90L92.30 24.10Q93.60 22.40 95.58 21.32Q97.55 20.25 100.65 20.25Q103.90 20.25 106.18 21.67Q108.45 23.10 109.63 25.63Q110.80 28.15 110.80 31.50L110.80 45.60Q110.80 46.10 110.48 46.42Q110.15 46.75 109.65 46.75L107.15 46.75Q106.65 46.75 106.33 46.42Q106 46.10 106 45.60L106 31.75Q106 28.25 104.30 26.27Q102.60 24.30 99.30 24.30Q96.20 24.30 94.33 26.27Q92.45 28.25 92.45 31.75L92.45 45.60Q92.45 46.10 92.13 46.42Q91.80 46.75 91.30 46.75L88.80 46.75ZM119.15 46.75Q118.65 46.75 118.33 46.42Q118 46.10 118 45.60L118 12.40Q118 11.90 118.33 11.57Q118.65 11.25 119.15 11.25L121.50 11.25Q122.05 11.25 122.35 11.57Q122.65 11.90 122.65 12.40L122.65 45.60Q122.65 46.10 122.35 46.42Q122.05 46.75 121.50 46.75L119.15 46.75ZM140.50 47.25Q135.30 47.25 132.25 44.08Q129.20 40.90 128.90 35.40Q128.85 34.75 128.85 33.73Q128.85 32.70 128.90 32.05Q129.10 28.50 130.55 25.82Q132 23.15 134.53 21.70Q137.05 20.25 140.45 20.25Q144.25 20.25 146.83 21.85Q149.40 23.45 150.75 26.40Q152.10 29.35 152.10 33.30L152.10 34.15Q152.10 34.70 151.78 35Q151.45 35.30 150.95 35.30L133.65 35.30Q133.65 35.35 133.65 35.50Q133.65 35.65 133.65 35.75Q133.75 37.80 134.55 39.58Q135.35 41.35 136.88 42.45Q138.40 43.55 140.45 43.55Q142.25 43.55 143.45 43Q144.65 42.45 145.40 41.77Q146.15 41.10 146.40 40.70Q146.85 40.10 147.10 39.98Q147.35 39.85 147.90 39.85L150.35 39.85Q150.80 39.85 151.13 40.13Q151.45 40.40 151.40 40.90Q151.35 41.65 150.60 42.73Q149.85 43.80 148.48 44.85Q147.10 45.90 145.08 46.58Q143.05 47.25 140.50 47.25M133.65 31.85L147.35 31.85L147.35 31.70Q147.35 29.45 146.53 27.70Q145.70 25.95 144.15 24.92Q142.60 23.90 140.45 23.90Q138.30 23.90 136.78 24.92Q135.25 25.95 134.45 27.70Q133.65 29.45 133.65 31.70L133.65 31.85ZM165.35 47.25Q162.85 47.25 160.80 46.25Q158.75 45.25 157.50 43.55Q156.25 41.85 156.25 39.70Q156.25 36.25 159.05 34.20Q161.85 32.15 166.35 31.50L173.80 30.45L173.80 29Q173.80 26.60 172.43 25.25Q171.05 23.90 167.95 23.90Q165.75 23.90 164.35 24.80Q162.95 25.70 162.40 27.10Q162.10 27.85 161.35 27.85L159.10 27.85Q158.55 27.85 158.28 27.52Q158 27.20 158 26.75Q158 26 158.58 24.90Q159.15 23.80 160.35 22.75Q161.55 21.70 163.43 20.97Q165.30 20.25 168 20.25Q171 20.25 173.05 21.02Q175.10 21.80 176.28 23.10Q177.45 24.40 177.98 26.05Q178.50 27.70 178.50 29.40L178.50 45.60Q178.50 46.10 178.18 46.42Q177.85 46.75 177.35 46.75L175.05 46.75Q174.50 46.75 174.20 46.42Q173.90 46.10 173.90 45.60L173.90 43.45Q173.25 44.35 172.15 45.23Q171.05 46.10 169.40 46.67Q167.75 47.25 165.35 47.25M166.40 43.50Q168.45 43.50 170.15 42.63Q171.85 41.75 172.83 39.90Q173.80 38.05 173.80 35.25L173.80 33.85L168 34.70Q164.45 35.20 162.65 36.38Q160.85 37.55 160.85 39.35Q160.85 40.75 161.68 41.67Q162.50 42.60 163.78 43.05Q165.05 43.50 166.40 43.50ZM189.45 46.75Q188.95 46.75 188.63 46.42Q188.30 46.10 188.30 45.60L188.30 24.75L184.05 24.75Q183.55 24.75 183.22 24.42Q182.90 24.10 182.90 23.60L182.90 21.90Q182.90 21.40 183.22 21.07Q183.55 20.75 184.05 20.75L188.30 20.75L188.30 18.25Q188.30 15.70 189.15 13.77Q190 11.85 191.88 10.80Q193.75 9.75 196.90 9.75L199.90 9.75Q200.40 9.75 200.72 10.07Q201.05 10.40 201.05 10.90L201.05 12.60Q201.05 13.10 200.72 13.42Q200.40 13.75 199.90 13.75L197 13.75Q194.65 13.75 193.80 14.97Q192.95 16.20 192.95 18.50L192.95 20.75L199.40 20.75Q199.90 20.75 200.22 21.07Q200.55 21.40 200.55 21.90L200.55 23.60Q200.55 24.10 200.22 24.42Q199.90 24.75 199.40 24.75L192.95 24.75L192.95 45.60Q192.95 46.10 192.63 46.42Q192.30 46.75 191.80 46.75L189.45 46.75Z"/>
  </g>
</svg>